{"title":"Long Blue Nails - Jerk4Me.wmv","uid":9142538,"size":135832703,"categoryP":"porn","categoryS":"movie_clips","magnet":"?xt=urn:btih:61d19e445f953976f66e42612ef9930f74c9ff4f&amp;dn=Long+Blue+Nails+-+Jerk4Me.wmv&amp;tr=udp%3A%2F%2Ftracker.openbittorrent.com%3A80&amp;tr=udp%3A%2F%2Fopen.demonii.com%3A1337&amp;tr=udp%3A%2F%2Ftracker.coppersurfer.tk%3A6969&amp;tr=udp%3A%2F%2Fexodus.desync.com%3A6969","seeders":0,"leechers":1,"uploader":null,"files":1,"time":1383533939,"description":"You know what I want! Masturbate for me - while I bury my long blue finger nails deep in my pussy! I love watching you do that - stroke it hard &amp; cum on my sexy long nails!!\n\n &lt;a href=&quot;\nhttp://www.hostpornpics.net/pornmg/share.php?id=F416_5276FED0&quot; rel=&quot;nofollow&quot; target=&quot;_NEW&quot;&gt;\nhttp://www.hostpornpics.net/pornmg/share.php?id=F416_5276FED0&lt;/a&gt;\n\nFormat : Windows Media\nFile size : 130 MiB\nDuration : 7mn 58s\nOverall bit rate mode : Constant\nOverall bit rate : 2 269 Kbps\nMaximum Overall bit rate : 2 277 Kbps\nMovie name : ? 2013 Wifecrazy.com\nPerformer : ? 2013 Wifecrazy.com\nEncoded date : UTC 2013-05-18 05:51:33.418\nCopyright : ? 2013 Wifecrazy.com\nComment : ? 2013 Wifecrazy.com\nRating : x\n\nVideo\nID : 2\nFormat : VC-1\nFormat profile : MP@ML\nCodec ID : WMV3\nCodec ID/Info : Windows Media Video 9\nCodec ID/Hint : WMV3\nDescription of the codec : Windows Media Video 9 - Professional\nDuration : 7mn 58s\nBit rate mode : Constant\nBit rate : 2 000 Kbps\nWidth : 720 pixels\nHeight : 480 pixels\nDisplay aspect ratio : 3:2\nFrame rate : 29.970 fps\nStandard : NTSC\nBit depth : 8 bits\nScan type : Progressive\nCompression mode : Lossy\nBits/(Pixel*Frame) : 0.193\nStream size : 114 MiB (88%)\n\nAudio\nID : 1\nFormat : WMA\nFormat profile : Pro\nCodec ID : 162\nCodec ID/Info : Windows Media Audio\nDescription of the codec : Windows Media Audio 10 Professional - 256 kbps, 48 kHz, 5.1 channel 16 bit (A/V) 1-pass CBR\nDuration : 7mn 58s\nBit rate mode : Constant\nBit rate : 256 Kbps\nChannel(s) : 6 channels\nSampling rate : 48.0 KHz\nBit depth : 16 bits\nStream size : 14.6 MiB (11%)","torrent":{"xt":"urn:btih:61d19e445f953976f66e42612ef9930f74c9ff4f","amp;dn":"Long+Blue+Nails+-+Jerk4Me.wmv","amp;tr":["udp%3A%2F%2Ftracker.openbittorrent.com%3A80","udp%3A%2F%2Fopen.demonii.com%3A1337","udp%3A%2F%2Ftracker.coppersurfer.tk%3A6969","udp%3A%2F%2Fexodus.desync.com%3A6969"],"infoHash":"61d19e445f953976f66e42612ef9930f74c9ff4f","infoHashBuffer":{"type":"Buffer","data":[97,209,158,68,95,149,57,118,246,110,66,97,46,249,147,15,116,201,255,79]},"announce":[],"urlList":[]}}